# xmcd
#
# Track frame offsets:
#   150
#   19413
#   36166
#   49623
#   67878
#   85787
#   104690
#   123524
#   142595
#   160572
#   175861
#   191053
#
# Disc length: 2876 seconds
#
# Revision: 0
# Processed by: cddbd v1.5.1PL0 Copyright (c) Steve Scherf et al.
# Submitted via: Media_Universe 3.0
#
DISCID=970b3a0c
DTITLE=MONTGOMERY GENTRY - You Do Your Thing
DYEAR=1900
DGENRE=Country
TTITLE0=Something To Be Proud Of
TTITLE1=You Do Your Thing
TTITLE2=If You Ever Stop Loving Me
TTITLE3=If It's The Last Thing I Do
TTITLE4=She Loved Me
TTITLE5=Gone
TTITLE6=All I Know About Mexico
TTITLE7=I Got Drunk
TTITLE8=It's All Good
TTITLE9=I Ain't Got It All That Bad
TTITLE10=Talking To My Angel
TTITLE11=I Never Thought I 'd Live This Song
EXTD=
EXTT0=
EXTT1=
EXTT2=
EXTT3=
EXTT4=
EXTT5=
EXTT6=
EXTT7=
EXTT8=
EXTT9=
EXTT10=
EXTT11=
PLAYORDER=
